HIERARCHY
ROOT Hips
{
  OFFSET 0 0.240689 0
  CHANNELS 6 Xposition Yposition Zposition Zrotation Xrotation Yrotation
  JOINT Bip01_Spine0
  {
    OFFSET 0 -24.7459 49.7988
    CHANNELS 6 Xposition Yposition Zposition Zrotation Xrotation Yrotation
    JOINT Bip01_Pelvis
    {
      OFFSET 0 0 0
      CHANNELS 6 Xposition Yposition Zposition Zrotation Xrotation Yrotation
      JOINT Bip01_Spine0_Tail
      {
        OFFSET -6.47486 -3.86022 0
        CHANNELS 6 Xposition Yposition Zposition Zrotation Xrotation Yrotation
        JOINT Bip01_Spine0_Tail1
        {
          OFFSET 10.3837 -0.00825882 0
          CHANNELS 6 Xposition Yposition Zposition Zrotation Xrotation Yrotation
          JOINT Bip01_Spine0_Tail2
          {
            OFFSET 10.3837 -0.00826263 0
            CHANNELS 6 Xposition Yposition Zposition Zrotation Xrotation Yrotation
            JOINT Bip01_Spine0_Tail3
            {
              OFFSET 10.3837 -0.00825882 0
              CHANNELS 6 Xposition Yposition Zposition Zrotation Xrotation Yrotation
              JOINT Bip01_Spine0_Tail4
              {
                OFFSET 10.3837 -0.00826263 0
                CHANNELS 6 Xposition Yposition Zposition Zrotation Xrotation Yrotation
                End Site
                {
                  OFFSET 0 0 0
                }
              }
            }
          }
        }
      }
      JOINT Bip01_R_Thigh
      {
        OFFSET 0 -1.52588e-005 -8.75617
        CHANNELS 6 Xposition Yposition Zposition Zrotation Xrotation Yrotation
        JOINT Bip01_R_Calf
        {
          OFFSET 19.7638 0 0
          CHANNELS 6 Xposition Yposition Zposition Zrotation Xrotation Yrotation
          JOINT Bip01_R_Foot
          {
            OFFSET 18.6534 0 0
            CHANNELS 6 Xposition Yposition Zposition Zrotation Xrotation Yrotation
            JOINT Bip01_R_Toe0
            {
              OFFSET 5.09145 13.9567 0
              CHANNELS 6 Xposition Yposition Zposition Zrotation Xrotation Yrotation
              JOINT Bip01_R_Toe01
              {
                OFFSET 4.28803 0 0
                CHANNELS 6 Xposition Yposition Zposition Zrotation Xrotation Yrotation
                JOINT Bip01_R_Toe02
                {
                  OFFSET 3.85801 0 0
                  CHANNELS 6 Xposition Yposition Zposition Zrotation Xrotation Yrotation
                  End Site
                  {
                    OFFSET 0 0 0
                  }
                }
              }
            }
          }
        }
      }
      JOINT Bip01_L_Thigh
      {
        OFFSET 0 1.52588e-005 8.75617
        CHANNELS 6 Xposition Yposition Zposition Zrotation Xrotation Yrotation
        JOINT Bip01_L_Calf
        {
          OFFSET 19.7638 0 0
          CHANNELS 6 Xposition Yposition Zposition Zrotation Xrotation Yrotation
          JOINT Bip01_L_Foot
          {
            OFFSET 18.6534 0 0
            CHANNELS 6 Xposition Yposition Zposition Zrotation Xrotation Yrotation
            JOINT Bip01_L_Toe0
            {
              OFFSET 5.09144 13.9567 0
              CHANNELS 6 Xposition Yposition Zposition Zrotation Xrotation Yrotation
              JOINT Bip01_L_Toe01
              {
                OFFSET 4.28802 0 0
                CHANNELS 6 Xposition Yposition Zposition Zrotation Xrotation Yrotation
                JOINT Bip01_L_Toe02
                {
                  OFFSET 3.85801 0 0
                  CHANNELS 6 Xposition Yposition Zposition Zrotation Xrotation Yrotation
                  End Site
                  {
                    OFFSET 0 0 0
                  }
                }
              }
            }
          }
        }
      }
      JOINT Bip01_Spine
      {
        OFFSET 9.14835 -0.00640869 -1.1e-005
        CHANNELS 6 Xposition Yposition Zposition Zrotation Xrotation Yrotation
        JOINT Bip01_Spine1
        {
          OFFSET 8.04366 -0.00638199 0
          CHANNELS 6 Xposition Yposition Zposition Zrotation Xrotation Yrotation
          JOINT Bip01_Spine2
          {
            OFFSET 8.04367 -0.00639343 0
            CHANNELS 6 Xposition Yposition Zposition Zrotation Xrotation Yrotation
            JOINT Bip01_Spine3
            {
              OFFSET 8.04304 -0.00831222 0
              CHANNELS 6 Xposition Yposition Zposition Zrotation Xrotation Yrotation
              JOINT Bip01_Neck
              {
                OFFSET 10.6685 1.06813 0
                CHANNELS 6 Xposition Yposition Zposition Zrotation Xrotation Yrotation
                JOINT Bip01_R_Clavicle
                {
                  OFFSET -3.21661 -4.89635 -9.04802
                  CHANNELS 6 Xposition Yposition Zposition Zrotation Xrotation Yrotation
                  JOINT Bip01_R_UpperArm
                  {
                    OFFSET 19.0492 0 0
                    CHANNELS 6 Xposition Yposition Zposition Zrotation Xrotation Yrotation
                    JOINT Bip01_R_Forearm
                    {
                      OFFSET 10.3706 0 0
                      CHANNELS 6 Xposition Yposition Zposition Zrotation Xrotation Yrotation
                      JOINT Bip01_R_Hand
                      {
                        OFFSET 22.8632 0 0
                        CHANNELS 6 Xposition Yposition Zposition Zrotation Xrotation Yrotation
                        JOINT Bip01_R_Finger0
                        {
                          OFFSET 6.48259 0.103651 0.504496
                          CHANNELS 6 Xposition Yposition Zposition Zrotation Xrotation Yrotation
                          JOINT Bip01_R_Finger01
                          {
                            OFFSET 3.66847 0 0
                            CHANNELS 6 Xposition Yposition Zposition Zrotation Xrotation Yrotation
                            End Site
                            {
                              OFFSET 0 0 0
                            }
                          }
                        }
                      }
                    }
                  }
                }
                JOINT Bip01_L_Clavicle
                {
                  OFFSET -3.21661 -4.89641 9.04797
                  CHANNELS 6 Xposition Yposition Zposition Zrotation Xrotation Yrotation
                  JOINT Bip01_L_UpperArm
                  {
                    OFFSET 19.0492 0 0
                    CHANNELS 6 Xposition Yposition Zposition Zrotation Xrotation Yrotation
                    JOINT Bip01_L_Forearm
                    {
                      OFFSET 10.3706 0 0
                      CHANNELS 6 Xposition Yposition Zposition Zrotation Xrotation Yrotation
                      JOINT Bip01_L_Hand
                      {
                        OFFSET 22.8631 0 0
                        CHANNELS 6 Xposition Yposition Zposition Zrotation Xrotation Yrotation
                        JOINT Bip01_L_Finger0
                        {
                          OFFSET 6.48257 0.103655 -0.504492
                          CHANNELS 6 Xposition Yposition Zposition Zrotation Xrotation Yrotation
                          JOINT Bip01_L_Finger01
                          {
                            OFFSET 3.66844 0 0
                            CHANNELS 6 Xposition Yposition Zposition Zrotation Xrotation Yrotation
                            End Site
                            {
                              OFFSET 0 0 0
                            }
                          }
                        }
                      }
                    }
                  }
                }
                JOINT Bip01_Neck1
                {
                  OFFSET 7.52459 -0.00656509 0
                  CHANNELS 6 Xposition Yposition Zposition Zrotation Xrotation Yrotation
                  JOINT Bip01_Neck2
                  {
                    OFFSET 8.4783 -0.00588226 0
                    CHANNELS 6 Xposition Yposition Zposition Zrotation Xrotation Yrotation
                    JOINT Bip01_Head
                    {
                      OFFSET 8.41606 0 0
                      CHANNELS 6 Xposition Yposition Zposition Zrotation Xrotation Yrotation
                      JOINT EyesBlue
                      {
                        OFFSET 0 0 0
                        CHANNELS 6 Xposition Yposition Zposition Zrotation Xrotation Yrotation
                        JOINT EyesBlue_2
                        {
                          OFFSET 0 -0.500007 0
                          CHANNELS 6 Xposition Yposition Zposition Zrotation Xrotation Yrotation
                          End Site
                          {
                            OFFSET 0 0 0
                          }
                        }
                      }
                      JOINT Bip01_Head2_Eyeleds
                      {
                        OFFSET 6.52751 7.61746 2.2e-005
                        CHANNELS 6 Xposition Yposition Zposition Zrotation Xrotation Yrotation
                        End Site
                        {
                          OFFSET 0 0 0
                        }
                      }
                      JOINT Bip01_Head_Muzzle
                      {
                        OFFSET 2.88628 13.9448 3.88994
                        CHANNELS 6 Xposition Yposition Zposition Zrotation Xrotation Yrotation
                        End Site
                        {
                          OFFSET 0 0 0
                        }
                      }
                      JOINT Bip01_Head1_Jaw
                      {
                        OFFSET 0.271065 1.32405 0
                        CHANNELS 6 Xposition Yposition Zposition Zrotation Xrotation Yrotation
                        JOINT _Bip01_Head11_TungeControler
                        {
                          OFFSET 4.61616 5.82872 0
                          CHANNELS 6 Xposition Yposition Zposition Zrotation Xrotation Yrotation
                          JOINT _Bip01_Ponytail3_tunge
                          {
                            OFFSET 5.17785 2.98805 0
                            CHANNELS 6 Xposition Yposition Zposition Zrotation Xrotation Yrotation
                            JOINT Bip01_Ponytail31
                            {
                              OFFSET 5.57569 0 0
                              CHANNELS 6 Xposition Yposition Zposition Zrotation Xrotation Yrotation
                              JOINT Bip01_Ponytail32
                              {
                                OFFSET 2.93165 0 0
                                CHANNELS 6 Xposition Yposition Zposition Zrotation Xrotation Yrotation
                                JOINT Bip01_Ponytail3Nub
                                {
                                  OFFSET 3.30155 0 0
                                  CHANNELS 6 Xposition Yposition Zposition Zrotation Xrotation Yrotation
                                  End Site
                                  {
                                    OFFSET 0 0 0
                                  }
                                }
                              }
                            }
                          }
                        }
                        JOINT Bip01_Head_JawNub
                        {
                          OFFSET 15.5776 -0.000389099 0
                          CHANNELS 6 Xposition Yposition Zposition Zrotation Xrotation Yrotation
                          End Site
                          {
                            OFFSET 0 0 0
                          }
                        }
                      }
                      JOINT Bip01_Ponytail2
                      {
                        OFFSET 9.40334 1.03973 -6.51764
                        CHANNELS 6 Xposition Yposition Zposition Zrotation Xrotation Yrotation
                        JOINT Bip01_Ponytail21
                        {
                          OFFSET 2.77018 -0.00640106 1.33514e-005
                          CHANNELS 6 Xposition Yposition Zposition Zrotation Xrotation Yrotation
                          End Site
                          {
                            OFFSET 0 0 0
                          }
                        }
                      }
                      JOINT Bip01_Ponytail1
                      {
                        OFFSET 9.40368 1.03969 6.51768
                        CHANNELS 6 Xposition Yposition Zposition Zrotation Xrotation Yrotation
                        JOINT Bip01_Ponytail11
                        {
                          OFFSET 2.77018 -0.00640487 0
                          CHANNELS 6 Xposition Yposition Zposition Zrotation Xrotation Yrotation
                          End Site
                          {
                            OFFSET 0 0 0
                          }
                        }
                      }
                    }
                  }
                }
              }
            }
          }
        }
      }
    }
  }
}
MOTION
Frames:	4
Frame Time:	0.0333333
0 0 0 -0 -90 -0 0.000108 -28.7008 44.8855 90.0001 -0.000565823 100.962 0 0 0 -90 -3.50835e-015 -90 -6.47439 -3.86243 -5.8e-005 123.962 0.00041 -0.000125 8.89589 -0.00793 8.5e-005 -7.66479 0.001391 0.00159 10.2239 -0.007617 0.000187 8.38268 0.002085 0.0018 9.85421 -0.00592 9.8e-005 19.1984 0.000211 0.000149 8.04664 -0.005527 0.000123 28.6989 0.002282 0.001352 1.1e-005 -1.1e-005 -8.75617 -111.877 -3.73374 159.945 19.7638 -3.55271e-015 -3.55271e-015 -73.1425 0.00021 0.001421 18.6534 1e-006 7.10543e-015 -1.26666 -2.29776 1.51411 5.09143 13.9567 -7.10543e-015 115.644 10.3597 7.90975 4.288 -1e-006 1e-006 42 1.08228e-005 -1.34766e-006 3.85803 -1.3e-005 1.00001e-006 -45 -3.22241e-005 -1.77957e-005 -1.5e-005 7e-006 8.75617 -130.961 1.42446 -161.735 19.7638 3e-006 0 -74.9688 0.000363115 0.002765 18.6534 1e-006 1.77636e-014 10.6671 1.48248 2.40598 5.09143 13.9567 -9.48833e-007 86.6433 -10.3597 -7.90974 4.288 1.24345e-014 1e-006 42 -6.7095e-005 8.37978e-007 3.858 1e-006 -9.99999e-007 -2.5 -3.4444e-005 2.13131e-006 9.14774 -0.006271 0.000114 -4.95304 0.000393 0.000428 8.04407 -0.006286 9.8e-005 4.50054 0.001632 0.001509 8.04445 -0.006282 0.000107 7.9741 0.001271 0.001105 8.04226 -0.008232 1e-006 -8.31132 0.000782003 0.000904 10.6695 1.06798 1.69999e-005 -2.66314 2.03977e-009 6.99973e-006 -4.0649 -4.21981 -9.04791 -177.377 -74.4163 129.506 19.0492 7.10543e-015 1.06581e-014 88.8191 -0.76037 -107.174 10.3706 4.08562e-014 -1e-006 -114.091 5.9137e-005 -0.000262176 22.8631 1e-006 -1e-006 -10.3772 14.9618 -9.91035 6.48256 0.103651 0.504494 -28.8509 -12.085 -9.77622 3.66843 -2.66454e-015 0 40.107 -4.46159e-005 4.34126e-005 -4.06472 -4.21968 9.0479 -177.379 74.4165 -129.502 19.0492 2.84217e-014 3e-006 88.7917 0.789796 107.131 10.3706 -5.32907e-015 -1.77636e-015 -114.601 0.000205572 -0.000962875 22.8631 -3.55271e-015 -3.55271e-015 -8.64064 -11.9113 11.1047 6.48256 0.103651 -0.504496 -28.8505 12.0848 9.77752 3.66843 1.78435e-012 -1e-006 40.107 7.66741e-005 -7.00344e-005 7.52716 -0.006629 3.8e-005 9.50089 0.000556996 0.000471001 8.47203 -0.005947 9e-006 -26.0001 0.000442987 0.000708998 8.41605 -1.42109e-014 -1.1666e-016 -93.4956 -3.89469e-005 0.000921341 -3e-006 2.84217e-014 -3e-006 -23.1098 1.37701e-015 90 9.48397e-010 -0.500004 -1.90735e-006 180 90 -90 0 0 0 -99.049 3.24611e-014 -180 5.47722 13.499 3.88993 -22.989 1.37021e-015 90 0 0 0 -85.3358 7.01671e-015 -180 0 0 0 -162.289 1.64766e-005 -5.26087e-006 0 0 0 170.24 -2.71543e-005 1.2887e-005 0 0 0 1.83152 4.85805e-010 -1.54148e-010 0 0 0 -17.6037 5.52328e-009 0.00560795 0 0 0 -26.2406 0.00248003 -0.0050299 15.5776 -0.000394 -7e-006 4.77083e-015 -8.73565e-019 2.32951e-018 9.40585 1.04108 -6.51594 70.3397 -28.946 146.584 2.76733 -0.00308 -0.004985 -39.6035 50.8656 39.8733 9.40619 1.04104 6.51597 70.3399 28.946 -146.584 2.76732 -0.003105 0.00497 -39.6037 -50.8656 -39.8733 
0 0 0 -0 -90 -0 0.208933 -28.7008 44.8911 90.1071 0.0206105 100.962 0 0 0 -90.0038 0.386881 -88.722 -6.47178 -3.86243 -0.150938 123.961 -1.10638 1.22311 8.89589 -0.00793 8.5e-005 -7.66479 0.00295101 1.99044 10.2239 -0.007617 0.000187 8.38267 -0.000145815 -1.9871 9.85421 -0.00592 9.8e-005 19.1986 -0.000522727 -1.98742 8.04664 -0.005527 0.000123 28.6993 -0.000102978 -1.98812 1.1e-005 -1.1e-005 -8.75617 -109.807 -3.51029 161.063 19.7638 0 3.55271e-015 -70.5644 0.000273705 0.00141012 18.6534 1e-006 3.55271e-015 4.3329 -1.77743 1.36315 5.09143 13.9567 1.42109e-014 109.774 10.2975 7.84887 4.288 -1e-006 1e-006 42 9.16101e-006 -1.37109e-006 3.85803 -1.3e-005 1.00001e-006 -45 -3.10661e-005 -1.66022e-005 -1.5e-005 7e-006 8.75617 -130.449 2.47044 -160.666 19.7638 3e-006 0 -73.3986 0.000438704 0.00275399 18.6534 1e-006 1.42109e-014 11.6056 1.76818 2.14464 5.09143 13.9567 -9.59413e-007 84.6889 -10.3623 -7.91962 4.288 1.42109e-014 1e-006 42 -6.37245e-005 8.31364e-007 3.858 1e-006 -9.99999e-007 -2.5 -3.44062e-005 1.98461e-006 9.14414 -0.006271 0.213315 -4.8287 0.117294 1.21564 8.04407 -0.006286 9.8e-005 4.64495 -0.0010663 -0.794898 8.04445 -0.006282 0.000107 8.14277 -0.000459923 -0.635032 8.04226 -0.008232 9.99851e-007 -8.49103 0.00246231 -0.794046 10.6695 1.06798 1.70552e-005 -2.62238 0.00393875 0.932923 -3.89665 -4.21713 -9.12199 -173.577 -74.3299 133.533 19.0492 0 -1.77636e-014 87.0903 2.78993 -107.09 10.3706 5.59553e-014 -1e-006 -112.58 5.05034e-005 -0.000262615 22.8631 1e-006 -1e-006 -11.2991 13.1773 -8.37862 6.48256 0.103651 0.504494 -28.7614 -12.1496 -9.74025 3.66843 6.66134e-015 0 40.107 -3.34821e-005 3.25691e-005 -4.238 -4.21548 8.96903 178.69 74.4319 -125.501 19.0492 -3.55271e-015 3e-006 89.5054 -2.83015 107.404 10.3706 -9.76997e-015 -7.10543e-015 -112.6 0.000171396 -0.000970133 22.8631 -7.10543e-015 -3.55271e-015 -8.23533 -12.5234 5.58929 6.48256 0.103651 -0.504496 -28.8506 12.0851 9.77753 3.66843 -3.59179e-012 -1e-006 40.107 -0.000159947 0.000127848 7.52716 -0.006629 3.79997e-005 9.65743 -0.0129583 -1.14933 8.47203 -0.005947 8.9998e-006 -26.685 0.0001047 0.00138126 8.41605 -7.10543e-015 2.44249e-015 -91.8164 0.905069 4.08085 -3e-006 2.13163e-014 -3e-006 -23.1098 1.37701e-015 90 9.34144e-010 -0.500004 -1.90688e-006 180 90 -90 0 0 0 -99.049 7.01671e-015 -180 5.8232 13.5426 3.88993 -22.989 1.37021e-015 90 0 0 0 -75.6692 1.52588e-005 -180 0 0 0 -162.289 -6.90694e-006 5.141e-007 0 0 0 170.24 -1.79638e-005 1.19885e-005 0 0 0 1.83152 -3.41777e-006 4.60524e-007 0 0 0 -17.65 -1.74166e-005 -3.33037e-006 0 0 0 -26.1943 3.99425e-006 3.0677e-006 15.5776 -0.000394 -7.00013e-006 3.97569e-016 4.96962e-016 3.97569e-016 9.40585 1.04108 -6.51594 70.3397 -28.946 146.584 2.76733 -0.00308 -0.004985 -39.6035 50.8656 39.8733 9.40619 1.04104 6.51597 70.3399 28.946 -146.584 2.76732 -0.003105 0.00497 -39.6037 -50.8656 -39.8733 
0 0 0 -0 -90 -0 0.541401 -28.7008 44.9 90.2757 0.0530563 100.962 0 0 0 -89.9993 0.000491985 -86.5384 -6.46002 -3.86243 -0.390936 123.994 -2.87004 3.16694 8.89589 -0.00793 8.5e-005 -7.66447 0.00526198 5.13478 10.2239 -0.007617 0.000187 8.38279 -0.00268064 -5.13408 9.85421 -0.00592 9.8e-005 19.1992 -0.0024469 -5.13328 8.04664 -0.005527 0.000123 28.6998 -0.0030667 -5.13376 1.1e-005 -1.1e-005 -8.75617 -107.944 -2.53945 162.546 19.7638 -3.55271e-015 0 -67.7909 0.000341617 0.00139522 18.6534 1e-006 0 8.98094 -1.14885 0.912427 5.09143 13.9567 0 104.257 10.2776 7.82751 4.288 -1e-006 1e-006 42 1.10088e-005 -1.3409e-006 3.85803 -1.3e-005 1.00001e-006 -45 -3.23504e-005 -1.79325e-005 -1.5e-005 7e-006 8.75617 -129.776 4.03571 -158.883 19.7638 3e-006 7.10543e-015 -71.8691 0.000512007 0.00274127 18.6534 1e-006 2.13163e-014 12.5001 2.24231 1.65299 5.09143 13.9567 -9.83282e-007 82.9589 -10.3613 -7.91677 4.288 1.95399e-014 1e-006 42 -6.64895e-005 8.88179e-007 3.858 1e-006 -9.99999e-007 -2.5 -3.40377e-005 2.10246e-006 9.12756 -0.006271 0.552371 -4.63468 0.302606 3.12075 8.04407 -0.006286 9.8e-005 4.86299 -0.00831103 -2.05143 8.04445 -0.006282 0.000107 8.3965 -0.00733863 -1.64248 8.04226 -0.008232 9.99643e-007 -8.76308 0.00925929 -2.05129 10.6695 1.06798 1.71313e-005 -2.54233 0.0133978 2.65018 -3.62557 -4.21346 -9.23305 -167.653 -74.0396 139.701 19.0492 0 1.06581e-014 83.9815 6.64156 -106.574 10.3706 5.9508e-014 -1e-006 -111.525 4.21453e-005 -0.000261632 22.8631 1e-006 -1e-006 -11.981 10.4086 -5.59815 6.48256 0.103651 0.504494 -28.9296 -12.0259 -9.80886 3.66843 9.32588e-015 -3.55271e-015 40.107 -2.9097e-005 2.80004e-005 -4.51014 -4.20892 8.83657 172.478 74.3112 -119.064 19.0492 -4.26326e-014 3e-006 91.7455 -6.74567 108.063 10.3706 -3.55271e-015 -5.32907e-015 -110.146 0.000128526 -0.000976662 22.8631 3.55271e-015 3.55271e-015 -7.20487 -13.6711 1.34122 6.48256 0.103651 -0.504496 -28.8506 12.0851 9.77753 3.66843 -2.93676e-012 -1e-006 40.107 -0.000131928 0.000102671 7.52716 -0.006629 3.79995e-005 9.89189 -0.0414741 -2.97669 8.47203 -0.005947 8.99954e-006 -27.7174 -0.000130317 0.00179738 8.41605 1.77636e-014 -2.22045e-016 -89.14 2.59211 10.4854 -3e-006 -3.55271e-014 -3e-006 -23.1098 1.37701e-015 90 -1.46524e-010 -0.500004 -1.90499e-006 180 90 -90 0 0 0 -99.049 -1.52588e-005 -180 6.16917 13.5863 3.88993 -22.989 1.37021e-015 90 0 0 0 -66.0026 -7.01671e-015 -180 0 0 0 -162.289 -2.20537e-005 -2.03349e-006 0 0 0 170.24 -7.25121e-005 8.06843e-006 0 0 0 1.83152 -2.08125e-006 -5.54509e-007 0 0 0 -17.65 1.09486e-005 5.88883e-006 0 0 0 -26.1943 2.63682e-006 3.33681e-006 15.5776 -0.000394 -7.00007e-006 -3.18055e-015 4.96962e-015 7.95139e-016 9.40585 1.04108 -6.51594 70.3397 -28.946 146.584 2.76733 -0.00308 -0.004985 -39.6035 50.8656 39.8733 9.40619 1.04104 6.51597 70.3399 28.946 -146.584 2.76732 -0.003105 0.00497 -39.6037 -50.8656 -39.8733 
0 0 0 -0 -90 -0 0.939178 -28.7008 44.9096 90.4532 0.0874934 100.962 0 0 0 -89.9994 0.00016513 -84.0842 -6.43667 -3.86243 -0.667179 124.08 -4.90541 5.3381 8.89589 -0.00793 8.5e-005 -7.66469 0.00750403 8.45678 10.2239 -0.007617 0.000187 8.38234 -0.00551703 -8.45326 9.85421 -0.00592 9.8e-005 19.1994 -0.00496833 -8.45271 8.04664 -0.005527 0.000123 28.6996 -0.00585094 -8.45298 1.1e-005 -1.1e-005 -8.75617 -106.572 -1.11054 164.147 19.7638 -7.10543e-015 0 -65.0408 0.000408166 0.00137722 18.6534 1e-006 3.55271e-015 13.0345 -0.574247 0.240141 5.09143 13.9567 -1.06581e-014 99.2679 10.2718 7.82681 4.288 -1e-006 1e-006 42 9.90429e-006 -1.35949e-006 3.85803 -1.3e-005 1.00001e-006 -45 -3.15822e-005 -1.71369e-005 -1.5e-005 7e-006 8.75617 -129.224 5.8075 -156.832 19.7638 3e-006 -7.10543e-015 -70.1621 0.000593399 0.00272478 18.6534 1e-006 1.77636e-014 13.0998 2.69827 1.00342 5.09143 13.9567 -1.00603e-006 81.4475 -10.3597 -7.90937 4.288 2.84217e-014 1e-006 42 -6.50484e-005 9.27709e-007 3.858 1e-006 -9.99999e-007 -2.5 -3.40487e-005 2.03769e-006 9.09454 -0.006271 0.942636 -4.52155 0.515191 4.92372 8.04407 -0.006286 9.8e-005 4.97756 -0.0156912 -3.38088 8.04445 -0.006282 0.000107 8.53028 -0.0143893 -2.70451 8.04226 -0.008232 9.99442e-007 -8.90667 0.0162089 -3.38055 10.6695 1.06798 1.72099e-005 -2.48415 0.0235525 4.6468 -3.30788 -4.21194 -9.35144 -161.153 -73.5061 146.559 19.0492 3.55271e-015 -3.55271e-015 81.0455 11.5501 -105.89 10.3706 5.32907e-014 -1e-006 -108.68 2.49046e-005 -0.000261733 22.8631 1e-006 -9.99999e-007 -13.0308 7.775 -2.94833 6.48256 0.103651 0.504494 -28.7839 -12.1315 -9.74993 3.66843 9.76997e-015 7.10542e-015 40.107 -2.5299e-005 2.395e-005 -4.81436 -4.20503 8.67571 165.617 73.9383 -112.021 19.0492 -8.52651e-014 3e-006 94.5816 -11.6263 108.976 10.3706 5.32907e-015 0 -105.992 5.62744e-005 -0.000984057 22.8631 -7.10543e-015 -1.42109e-014 -6.71053 -14.9036 -3.01403 6.48256 0.103651 -0.504496 -28.8506 12.085 9.77752 3.66843 -1.92135e-012 -1e-006 40.107 -8.90037e-005 6.53595e-005 7.52716 -0.006629 3.79994e-005 10.0144 -0.063957 -5.075 8.47203 -0.005947 8.99928e-006 -28.2618 0.000227533 0.00111227 8.41605 -3.55271e-015 0 -86.224 4.80253 17.7063 -3e-006 -4.26326e-014 -3e-006 -23.1098 1.37701e-015 90 -2.67085e-009 -0.500004 -1.9024e-006 180 90 -90 0 0 0 -99.049 -1.52588e-005 -180 6.51515 13.6299 3.88993 -22.989 1.37021e-015 90 0 0 0 -56.336 1.52588e-005 -180 0 0 0 -162.289 2.36272e-005 -2.60248e-006 0 0 0 170.24 -2.28843e-005 1.55103e-005 0 0 0 1.83152 -6.97306e-007 -3.51111e-007 0 0 0 -17.65 3.77426e-006 3.54062e-006 0 0 0 -26.1943 1.37883e-006 3.24595e-006 15.5776 -0.000394 -7.00006e-006 -3.75182e-031 6.75868e-015 3.18055e-015 9.40585 1.04108 -6.51594 70.3397 -28.946 146.584 2.76733 -0.00308 -0.004985 -39.6035 50.8656 39.8733 9.40619 1.04104 6.51597 70.3399 28.946 -146.584 2.76732 -0.003105 0.00497 -39.6037 -50.8656 -39.8733 
